<?xml version="1.0" encoding="utf-8"?>
<!-- Generator: Adobe Illustrator 22.1.0, SVG Export Plug-In . SVG Version: 6.00 Build 0)  -->
<svg version="1.1" id="Laag_1" xmlns="http://www.w3.org/2000/svg" xmlns:xlink="http://www.w3.org/1999/xlink" x="0px" y="0px"
	 viewBox="0 0 141.7 106.2" style="enable-background:new 0 0 141.7 106.2;" xml:space="preserve">
<style type="text/css">
	.st0{opacity:0.41;}
	.st1{fill:#CECECE;}
	.st2{opacity:0.15;fill:#FFFFFF;}
	.st3{fill:#211201;}
	.st4{fill:#685244;}
	.st5{fill:#EB764D;}
	.st6{fill:#F9C5A9;}
	.st7{fill:#2B2B2B;}
	.st8{fill:#112D11;}
	.st9{fill:#213D21;}
	.st10{fill:#301A05;}
	.st11{fill:#091C0C;}
	.st12{fill:#CCCCCC;}
</style>
<g class="st0">
	<path class="st1" d="M7.1,84.8c0,0,0-0.2-0.1-0.3c-0.1-0.1-0.3-0.1-0.3-0.1s0.2,0,0.3-0.1C7.1,84.2,7.1,84,7.1,84s0,0.2,0.1,0.3
		c0.1,0.1,0.3,0.1,0.3,0.1s-0.2,0-0.3,0.1C7.1,84.6,7.1,84.8,7.1,84.8z"/>
	<path class="st1" d="M6.7,17.6c0.1-0.1,0.1-0.1,0.2,0c0.1,0.1,0.1,0.1,0,0.2c-0.1,0.1-0.1,0.1-0.2,0C6.6,17.8,6.6,17.7,6.7,17.6z"
		/>
	<path class="st1" d="M51.2,31.1c0-0.1,0.1-0.2,0.2-0.2c0.1,0,0.2,0.1,0.2,0.2c0,0.1-0.1,0.2-0.2,0.2C51.3,31.3,51.2,31.2,51.2,31.1
		z"/>
	<path class="st1" d="M61.3,39.8c0-0.1,0.1-0.2,0.2-0.2c0.1,0,0.2,0.1,0.2,0.2c0,0.1-0.1,0.2-0.2,0.2C61.4,40,61.3,39.9,61.3,39.8z"
		/>
	<path class="st1" d="M57.1,40.6c0-0.1,0.1-0.2,0.2-0.2c0.1,0,0.2,0.1,0.2,0.2c0,0.1-0.1,0.2-0.2,0.2C57.2,40.8,57.1,40.7,57.1,40.6
		z"/>
	<path class="st1" d="M53.2,29.8c0-0.1,0.1-0.2,0.2-0.2c0.1,0,0.2,0.1,0.2,0.2c0,0.1-0.1,0.2-0.2,0.2C53.3,30,53.2,29.9,53.2,29.8z"
		/>
	<path class="st1" d="M55.6,30c0-0.1,0.1-0.2,0.2-0.2c0.1,0,0.2,0.1,0.2,0.2c0,0.1-0.1,0.2-0.2,0.2C55.7,30.2,55.6,30.1,55.6,30z"/>
	<path class="st1" d="M60.6,37c0-0.1,0.1-0.2,0.2-0.2c0.1,0,0.2,0.1,0.2,0.2c0,0.1-0.1,0.2-0.2,0.2C60.7,37.2,60.6,37.1,60.6,37z"/>
	<path class="st1" d="M69.1,41.6c0,0-0.1-0.7-0.4-1.1c-0.3-0.3-1-0.3-1-0.3s0.6,0,1-0.3c0.3-0.3,0.4-1.1,0.4-1.1s0,0.7,0.3,1.1
		c0.2,0.2,1,0.3,1,0.3s-0.8,0.1-1,0.3C69.1,40.9,69.1,41.6,69.1,41.6z"/>
	<path class="st1" d="M114.3,49.3c0,0-0.1-0.7-0.4-1.1c-0.3-0.3-1-0.3-1-0.3s0.6,0,1-0.3c0.3-0.3,0.4-1.1,0.4-1.1s0,0.7,0.3,1.1
		c0.2,0.2,1,0.3,1,0.3s-0.8,0.1-1,0.3C114.3,48.5,114.3,49.3,114.3,49.3z"/>
	<path class="st1" d="M65,75.4c0,0,0-0.4-0.2-0.6c-0.1-0.1-0.5-0.2-0.5-0.2s0.4,0,0.5-0.2c0.2-0.1,0.2-0.6,0.2-0.6s0,0.4,0.2,0.6
		c0.1,0.1,0.6,0.2,0.6,0.2s-0.4,0-0.6,0.2C65,75,65,75.4,65,75.4z"/>
	<path class="st1" d="M13.6,67.6c0,0,0-0.4-0.2-0.6c-0.1-0.1-0.5-0.2-0.5-0.2s0.4,0,0.5-0.2c0.2-0.1,0.2-0.6,0.2-0.6s0,0.4,0.2,0.6
		c0.1,0.1,0.6,0.2,0.6,0.2s-0.4,0-0.6,0.2C13.6,67.2,13.6,67.6,13.6,67.6z"/>
	<path class="st1" d="M56.9,46.6c0,0,0-0.4-0.2-0.6c-0.1-0.1-0.5-0.2-0.5-0.2s0.4,0,0.5-0.2c0.2-0.1,0.2-0.6,0.2-0.6s0,0.4,0.2,0.6
		c0.1,0.1,0.6,0.2,0.6,0.2s-0.4,0-0.6,0.2C56.9,46.2,56.9,46.6,56.9,46.6z"/>
	<path class="st1" d="M56.9,70.1c0,0,0-0.4-0.2-0.6c-0.1-0.1-0.5-0.2-0.5-0.2s0.4,0,0.5-0.2c0.2-0.1,0.2-0.6,0.2-0.6s0,0.4,0.2,0.6
		c0.1,0.1,0.6,0.2,0.6,0.2s-0.4,0-0.6,0.2C56.9,69.7,56.9,70.1,56.9,70.1z"/>
	<path class="st1" d="M64.2,89c0,0,0-0.4-0.2-0.6c-0.1-0.1-0.5-0.2-0.5-0.2s0.4,0,0.5-0.2c0.2-0.1,0.2-0.6,0.2-0.6s0,0.4,0.2,0.6
		c0.1,0.1,0.6,0.2,0.6,0.2s-0.4,0-0.6,0.2C64.2,88.6,64.2,89,64.2,89z"/>
	<path class="st1" d="M62.3,27.7c0,0-0.1-0.7-0.4-1c-0.3-0.3-1-0.3-1-0.3s0.6,0,1-0.3c0.3-0.3,0.4-1,0.4-1s0,0.7,0.3,1
		c0.2,0.2,1,0.3,1,0.3s-0.8,0.1-1,0.3C62.3,27,62.3,27.7,62.3,27.7z"/>
	<path class="st1" d="M49.4,27.2c0,0,0-0.5-0.2-0.7c-0.2-0.2-0.6-0.2-0.6-0.2s0.4,0,0.6-0.2c0.2-0.2,0.2-0.7,0.2-0.7s0,0.5,0.2,0.7
		c0.2,0.2,0.7,0.2,0.7,0.2s-0.5,0-0.7,0.2C49.4,26.8,49.4,27.2,49.4,27.2z"/>
	<path class="st1" d="M17.3,73.7c0,0,0-0.2-0.1-0.3c-0.1-0.1-0.3-0.1-0.3-0.1s0.2,0,0.3-0.1c0.1-0.1,0.1-0.3,0.1-0.3s0,0.2,0.1,0.3
		c0.1,0.1,0.3,0.1,0.3,0.1s-0.2,0-0.3,0.1C17.3,73.4,17.3,73.7,17.3,73.7z"/>
	<path class="st1" d="M8,84.8c0,0,0-0.2-0.1-0.3c-0.1-0.1-0.3-0.1-0.3-0.1s0.2,0,0.3-0.1C8,84.2,8,84,8,84s0,0.2,0.1,0.3
		c0.1,0.1,0.3,0.1,0.3,0.1s-0.2,0-0.3,0.1C8,84.6,8,84.8,8,84.8z"/>
	<path class="st1" d="M23.8,70.2c0,0,0-0.2-0.1-0.3c-0.1-0.1-0.3-0.1-0.3-0.1s0.2,0,0.3-0.1c0.1-0.1,0.1-0.3,0.1-0.3s0,0.2,0.1,0.3
		c0.1,0.1,0.3,0.1,0.3,0.1s-0.2,0-0.3,0.1C23.8,70,23.8,70.2,23.8,70.2z"/>
	<g>
		<path class="st1" d="M136.3,9.2c0.2,0,0.5-0.1,0.5-0.2c0.1-0.1,0.1-0.3-0.1-0.4c-0.1-0.1-0.3-0.1-0.5-0.1c0,0-0.1,0-0.1,0
			c0,0-0.1,0.1-0.1,0.1c-0.1,0.1-0.1,0.2-0.1,0.2c0,0.1,0,0.2,0.1,0.2C136.1,9.2,136.2,9.2,136.3,9.2z"/>
		<path class="st1" d="M135.5,7.1C135.5,7.1,135.5,7.1,135.5,7.1c-0.1,0-0.2,0-0.3,0.1c0,0-0.1,0-0.1,0.1c0,0,0,0.1,0,0.1
			c0.1,0.1,0.2,0.1,0.3,0.1C135.6,7.3,135.6,7.2,135.5,7.1C135.6,7.1,135.5,7.1,135.5,7.1z"/>
		<path class="st1" d="M134.2,5.4c0-0.1-0.1-0.1-0.1-0.1c-0.1,0-0.1,0-0.2,0.1c0,0.1,0,0.2,0,0.2c0.1,0,0.1,0,0.2,0
			C134.1,5.5,134.2,5.4,134.2,5.4z"/>
		<path class="st1" d="M133.7,6.2C133.7,6.2,133.7,6.3,133.7,6.2c0,0.2-0.1,0.3-0.2,0.2C133.2,6.4,133.6,5.9,133.7,6.2z"/>
		<path class="st1" d="M133.9,7c0.1,0,0.2-0.1,0.2-0.2c0-0.1,0-0.1-0.1-0.1c0,0-0.1,0-0.2,0c0,0-0.1,0-0.1,0c0,0,0,0-0.1,0
			c-0.1,0-0.1,0.2,0,0.2C133.8,7,133.8,7,133.9,7z"/>
		<path class="st1" d="M133.5,7.5c0,0.1,0,0.2,0,0.2c0,0.1,0.1,0.1,0.2,0.1c0,0,0,0,0.1,0c0,0,0,0,0.1-0.1c0-0.1,0-0.2,0-0.2
			C133.7,7.3,133.5,7.4,133.5,7.5z"/>
		<path class="st1" d="M132.6,7.1c0,0.1,0,0.2,0,0.2c0.1,0,0.1,0,0.2,0c0,0,0.1-0.1,0.1-0.2C132.9,7.1,132.7,7,132.6,7.1
			C132.6,7.1,132.6,7.1,132.6,7.1z"/>
		<path class="st1" d="M131.7,5.7c0.1-0.1,0.3-0.1,0.3-0.2c0-0.1-0.1-0.3-0.2-0.3c-0.1,0-0.2,0-0.3,0c-0.1,0.1-0.2,0.2-0.2,0.3
			c0,0.1,0.1,0.3,0.2,0.3C131.5,5.7,131.6,5.7,131.7,5.7z"/>
		<path class="st1" d="M131.7,7.4c0.2,0.1,0.6-0.3,0.3-0.4c-0.1,0-0.2,0-0.2,0c-0.1,0-0.1,0.1-0.1,0.2
			C131.6,7.2,131.6,7.3,131.7,7.4z"/>
		<path class="st1" d="M132.6,8.3c0.1,0,0.2-0.2,0.1-0.3C132.6,8,132.5,8,132.4,8c0,0,0,0,0,0c0,0,0,0,0,0.1c0,0.1,0.1,0.2,0.1,0.2
			C132.5,8.3,132.6,8.4,132.6,8.3z"/>
		<path class="st1" d="M133.6,8.3c-0.1,0-0.2,0.1-0.3,0.2c-0.1,0.1-0.1,0.2,0,0.3c0,0,0.1,0,0.1,0.1c0.1,0.1,0.3,0,0.4,0
			c0.1,0,0.3-0.1,0.3-0.2c0,0,0-0.1,0-0.1c0,0,0-0.1,0-0.1c0-0.1-0.1-0.1-0.2-0.1C133.7,8.3,133.7,8.3,133.6,8.3z"/>
		<path class="st1" d="M133.6,10.7c0-0.1-0.1-0.1-0.2-0.1c-0.1,0-0.1,0.1-0.2,0.1c-0.1,0.1-0.1,0.2,0,0.3
			C133.4,11.3,133.7,10.9,133.6,10.7z"/>
		<path class="st1" d="M133,10.3c0.1-0.4-0.5,0.1-0.2,0.2c0,0,0,0,0.1,0C132.9,10.4,133,10.4,133,10.3z"/>
		<path class="st1" d="M132.2,10c-0.1-0.1-0.1-0.1-0.2,0c0,0-0.1,0-0.1,0.1c0,0,0,0,0,0.1c0,0.1,0.2,0.2,0.3,0.1
			C132.3,10.2,132.3,10.1,132.2,10z"/>
		<path class="st1" d="M132.6,9.3c-0.1,0.1,0,0.3,0.1,0.3c0.1,0,0.2-0.2,0.2-0.3c0,0-0.1-0.1-0.1-0.1C132.7,9.2,132.6,9.3,132.6,9.3
			z"/>
		<path class="st1" d="M133.4,9.9c0.1,0,0.2-0.1,0.3-0.1c0.1-0.1,0-0.2,0-0.3c0,0,0,0-0.1,0c0,0-0.1,0-0.1,0c0,0-0.1,0.1-0.1,0.1
			c0,0,0,0.1-0.1,0.1C133.3,9.7,133.2,9.8,133.4,9.9C133.3,9.8,133.3,9.9,133.4,9.9z"/>
		<path class="st1" d="M134.8,9.3C134.8,9.3,134.8,9.3,134.8,9.3c0.3,0,0.4-0.4,0.2-0.4C134.9,8.9,134.8,9,134.8,9.3
			C134.8,9.2,134.8,9.3,134.8,9.3z"/>
	</g>
	<g>
		<path class="st1" d="M8.7,46.2c0.2,0,0.5-0.1,0.5-0.2c0.1-0.1,0.1-0.3-0.1-0.4c-0.1-0.1-0.3-0.1-0.5-0.1c0,0-0.1,0-0.1,0
			c0,0-0.1,0.1-0.1,0.1c-0.1,0.1-0.1,0.2-0.1,0.2c0,0.1,0,0.2,0.1,0.2C8.5,46.2,8.6,46.2,8.7,46.2z"/>
		<path class="st1" d="M8,44.1C8,44.1,7.9,44.1,8,44.1c-0.1,0-0.2,0-0.3,0.1c0,0-0.1,0-0.1,0.1c0,0,0,0.1,0,0.1
			c0.1,0.1,0.2,0.1,0.3,0.1C8,44.3,8,44.2,8,44.1C8,44.1,8,44.1,8,44.1z"/>
		<path class="st1" d="M6.6,42.4c0-0.1-0.1-0.1-0.1-0.1c-0.1,0-0.1,0-0.2,0.1c0,0.1,0,0.2,0,0.2c0.1,0,0.1,0,0.2,0
			C6.6,42.5,6.6,42.4,6.6,42.4z"/>
		<path class="st1" d="M6.2,43.2C6.2,43.3,6.2,43.3,6.2,43.2c0,0.2-0.1,0.3-0.2,0.2C5.7,43.5,6.1,42.9,6.2,43.2z"/>
		<path class="st1" d="M6.4,44c0.1,0,0.2-0.1,0.2-0.2c0-0.1,0-0.1-0.1-0.1c0,0-0.1,0-0.2,0c0,0-0.1,0-0.1,0c0,0,0,0-0.1,0
			c-0.1,0-0.1,0.2,0,0.2C6.2,44,6.3,44,6.4,44z"/>
		<path class="st1" d="M5.9,44.5c0,0.1,0,0.2,0,0.2c0,0.1,0.1,0.1,0.2,0.1c0,0,0,0,0.1,0c0,0,0,0,0.1-0.1c0-0.1,0-0.2,0-0.2
			C6.1,44.4,6,44.4,5.9,44.5z"/>
		<path class="st1" d="M5.1,44.1c0,0.1,0,0.2,0,0.2c0.1,0,0.1,0,0.2,0c0,0,0.1-0.1,0.1-0.2C5.3,44.1,5.2,44,5.1,44.1
			C5.1,44.1,5.1,44.1,5.1,44.1z"/>
		<path class="st1" d="M4.1,42.7c0.1-0.1,0.3-0.1,0.3-0.2c0-0.1-0.1-0.3-0.2-0.3c-0.1,0-0.2,0-0.3,0c-0.1,0.1-0.2,0.2-0.2,0.3
			c0,0.1,0.1,0.3,0.2,0.3C3.9,42.7,4,42.7,4.1,42.7z"/>
		<path class="st1" d="M4.1,44.4c0.2,0.1,0.6-0.3,0.3-0.4c-0.1,0-0.2,0-0.2,0c-0.1,0-0.1,0.1-0.1,0.2C4,44.3,4,44.3,4.1,44.4z"/>
		<path class="st1" d="M5.1,45.4c0.1,0,0.2-0.2,0.1-0.3C5.1,45,5,45,4.9,45c0,0,0,0,0,0c0,0,0,0,0,0.1c0,0.1,0.1,0.2,0.1,0.2
			C5,45.3,5,45.4,5.1,45.4z"/>
		<path class="st1" d="M6,45.3c-0.1,0-0.2,0.1-0.3,0.2c-0.1,0.1-0.1,0.2,0,0.3c0,0,0.1,0,0.1,0.1c0.1,0.1,0.3,0,0.4,0
			c0.1,0,0.3-0.1,0.3-0.2c0,0,0-0.1,0-0.1c0,0,0-0.1,0-0.1c0-0.1-0.1-0.1-0.2-0.1C6.2,45.3,6.1,45.3,6,45.3z"/>
		<path class="st1" d="M6.1,47.7c0-0.1-0.1-0.1-0.2-0.1c-0.1,0-0.1,0.1-0.2,0.1c-0.1,0.1-0.1,0.2,0,0.3C5.8,48.3,6.2,47.9,6.1,47.7z
			"/>
		<path class="st1" d="M5.5,47.3c0.1-0.4-0.5,0.1-0.2,0.2c0,0,0,0,0.1,0C5.4,47.5,5.5,47.4,5.5,47.3z"/>
		<path class="st1" d="M4.7,47c-0.1-0.1-0.1-0.1-0.2,0c0,0-0.1,0-0.1,0.1c0,0,0,0,0,0.1c0,0.1,0.2,0.2,0.3,0.1
			C4.7,47.2,4.8,47.1,4.7,47z"/>
		<path class="st1" d="M5.1,46.4c-0.1,0.1,0,0.3,0.1,0.3c0.1,0,0.2-0.2,0.2-0.3c0,0-0.1-0.1-0.1-0.1C5.2,46.2,5.1,46.3,5.1,46.4z"/>
		<path class="st1" d="M5.8,46.9c0.1,0,0.2-0.1,0.3-0.1c0.1-0.1,0-0.2,0-0.3c0,0,0,0-0.1,0c0,0-0.1,0-0.1,0c0,0-0.1,0.1-0.1,0.1
			c0,0,0,0.1-0.1,0.1C5.7,46.7,5.7,46.8,5.8,46.9C5.8,46.9,5.8,46.9,5.8,46.9z"/>
		<path class="st1" d="M7.3,46.3C7.3,46.3,7.3,46.3,7.3,46.3c0.3,0,0.4-0.4,0.2-0.4C7.4,45.9,7.2,46.1,7.3,46.3
			C7.2,46.2,7.2,46.3,7.3,46.3z"/>
	</g>
	<g>
		<path class="st1" d="M37.7,22c0.2,0,0.5-0.1,0.5-0.2c0.1-0.1,0.1-0.3-0.1-0.4c-0.1-0.1-0.3-0.1-0.5-0.1c0,0-0.1,0-0.1,0
			c0,0-0.1,0.1-0.1,0.1c-0.1,0.1-0.1,0.2-0.1,0.2c0,0.1,0,0.2,0.1,0.2C37.5,21.9,37.6,22,37.7,22z"/>
		<path class="st1" d="M37,19.9C37,19.8,36.9,19.8,37,19.9c-0.1,0-0.2,0-0.3,0.1c0,0-0.1,0-0.1,0.1c0,0,0,0.1,0,0.1
			c0.1,0.1,0.2,0.1,0.3,0.1C37,20.1,37,20,37,19.9C37,19.9,37,19.9,37,19.9z"/>
		<path class="st1" d="M35.6,18.1c0-0.1-0.1-0.1-0.1-0.1c-0.1,0-0.1,0-0.2,0.1c0,0.1,0,0.2,0,0.2c0.1,0,0.1,0,0.2,0
			C35.6,18.2,35.6,18.2,35.6,18.1z"/>
		<path class="st1" d="M35.2,19C35.2,19,35.2,19,35.2,19c0,0.2-0.1,0.3-0.2,0.2C34.7,19.2,35.1,18.6,35.2,19z"/>
		<path class="st1" d="M35.4,19.8c0.1,0,0.2-0.1,0.2-0.2c0-0.1,0-0.1-0.1-0.1c0,0-0.1,0-0.2,0c0,0-0.1,0-0.1,0c0,0,0,0-0.1,0
			c-0.1,0-0.1,0.2,0,0.2C35.2,19.8,35.3,19.8,35.4,19.8z"/>
		<path class="st1" d="M34.9,20.2c0,0.1,0,0.2,0,0.2c0,0.1,0.1,0.1,0.2,0.1c0,0,0,0,0.1,0c0,0,0,0,0.1-0.1c0-0.1,0-0.2,0-0.2
			C35.1,20.1,35,20.1,34.9,20.2z"/>
		<path class="st1" d="M34,19.9c0,0.1,0,0.2,0,0.2c0.1,0,0.1,0,0.2,0c0,0,0.1-0.1,0.1-0.2C34.3,19.8,34.2,19.8,34,19.9
			C34.1,19.8,34.1,19.8,34,19.9z"/>
		<path class="st1" d="M33.1,18.4c0.1-0.1,0.3-0.1,0.3-0.2c0-0.1-0.1-0.3-0.2-0.3c-0.1,0-0.2,0-0.3,0c-0.1,0.1-0.2,0.2-0.2,0.3
			c0,0.1,0.1,0.3,0.2,0.3C32.9,18.5,33,18.5,33.1,18.4z"/>
		<path class="st1" d="M33.1,20.1c0.2,0.1,0.6-0.3,0.3-0.4c-0.1,0-0.2,0-0.2,0c-0.1,0-0.1,0.1-0.1,0.2C33,20,33,20.1,33.1,20.1z"/>
		<path class="st1" d="M34.1,21.1c0.1,0,0.2-0.2,0.1-0.3c-0.1-0.1-0.2-0.1-0.3-0.1c0,0,0,0,0,0c0,0,0,0,0,0.1c0,0.1,0.1,0.2,0.1,0.2
			C34,21.1,34,21.1,34.1,21.1z"/>
		<path class="st1" d="M35,21.1c-0.1,0-0.2,0.1-0.3,0.2c-0.1,0.1-0.1,0.2,0,0.3c0,0,0.1,0,0.1,0.1c0.1,0.1,0.3,0,0.4,0
			c0.1,0,0.3-0.1,0.3-0.2c0,0,0-0.1,0-0.1c0,0,0-0.1,0-0.1c0-0.1-0.1-0.1-0.2-0.1C35.2,21,35.1,21,35,21.1z"/>
		<path class="st1" d="M35.1,23.5c0-0.1-0.1-0.1-0.2-0.1c-0.1,0-0.1,0.1-0.2,0.1c-0.1,0.1-0.1,0.2,0,0.3
			C34.8,24.1,35.2,23.7,35.1,23.5z"/>
		<path class="st1" d="M34.5,23.1c0.1-0.4-0.5,0.1-0.2,0.2c0,0,0,0,0.1,0C34.4,23.2,34.5,23.1,34.5,23.1z"/>
		<path class="st1" d="M33.7,22.8c-0.1-0.1-0.1-0.1-0.2,0c0,0-0.1,0-0.1,0.1c0,0,0,0,0,0.1c0,0.1,0.2,0.2,0.3,0.1
			C33.7,23,33.8,22.8,33.7,22.8z"/>
		<path class="st1" d="M34.1,22.1c-0.1,0.1,0,0.3,0.1,0.3c0.1,0,0.2-0.2,0.2-0.3c0,0-0.1-0.1-0.1-0.1C34.2,22,34.1,22,34.1,22.1z"/>
		<path class="st1" d="M34.8,22.6c0.1,0,0.2-0.1,0.3-0.1c0.1-0.1,0-0.2,0-0.3c0,0,0,0-0.1,0c0,0-0.1,0-0.1,0c0,0-0.1,0.1-0.1,0.1
			c0,0,0,0.1-0.1,0.1C34.7,22.4,34.7,22.5,34.8,22.6C34.8,22.6,34.8,22.6,34.8,22.6z"/>
		<path class="st1" d="M36.3,22.1C36.3,22.1,36.3,22.1,36.3,22.1c0.3,0,0.4-0.4,0.2-0.4C36.4,21.7,36.2,21.8,36.3,22.1
			C36.2,22,36.2,22,36.3,22.1z"/>
	</g>
	<path class="st1" d="M30.1,77.7C30.1,77.7,30,77.7,30.1,77.7C30,77.7,30,77.7,30.1,77.7c-0.1,0-0.1,0-0.1,0.1c0,0,0.1,0.1,0.1,0.1
		C30.1,77.8,30.1,77.8,30.1,77.7z"/>
	<path class="st1" d="M103.9,25.3c0,0,0-0.3-0.1-0.4c-0.1-0.1-0.3-0.1-0.3-0.1s0.2,0,0.3-0.1c0.1-0.1,0.1-0.4,0.1-0.4s0,0.3,0.1,0.4
		c0.1,0.1,0.4,0.1,0.4,0.1s-0.3,0-0.4,0.1C103.9,25,103.9,25.3,103.9,25.3z"/>
	<path class="st1" d="M9.4,12.1c0.1-0.1,0.2-0.1,0.2,0c0.1,0.1,0.1,0.2,0,0.2c-0.1,0.1-0.2,0.1-0.2,0C9.3,12.3,9.3,12.2,9.4,12.1z"
		/>
	<path class="st1" d="M45.8,33.7c0-0.1,0.1-0.2,0.2-0.2c0.1,0,0.2,0.1,0.2,0.2c0,0.1-0.1,0.2-0.2,0.2C45.8,33.9,45.8,33.8,45.8,33.7
		z"/>
	<path class="st1" d="M47.3,35.6c0-0.1,0.1-0.2,0.2-0.2c0.1,0,0.2,0.1,0.2,0.2c0,0.1-0.1,0.2-0.2,0.2C47.3,35.7,47.3,35.7,47.3,35.6
		z"/>
	<circle class="st1" cx="43.7" cy="37.2" r="0.2"/>
	<path class="st1" d="M39.2,41.9c0-0.1,0.1-0.2,0.2-0.2s0.2,0.1,0.2,0.2c0,0.1-0.1,0.2-0.2,0.2S39.2,42,39.2,41.9z"/>
	<path class="st1" d="M37.5,40.4c0-0.1,0.1-0.2,0.2-0.2c0.1,0,0.2,0.1,0.2,0.2c0,0.1-0.1,0.2-0.2,0.2C37.5,40.6,37.5,40.5,37.5,40.4
		z"/>
	<path class="st1" d="M35.7,42.2c0-0.1,0.1-0.2,0.2-0.2c0.1,0,0.2,0.1,0.2,0.2c0,0.1-0.1,0.2-0.2,0.2C35.8,42.4,35.7,42.3,35.7,42.2
		z"/>
	<path class="st1" d="M10.9,16.6c0.1-0.1,0.1-0.1,0.2,0c0.1,0.1,0.1,0.1,0,0.2c-0.1,0.1-0.1,0.1-0.2,0
		C10.9,16.8,10.9,16.7,10.9,16.6z"/>
	<path class="st1" d="M67.6,26.4c0-0.1,0.1-0.1,0.1-0.1c0.1,0,0.1,0.1,0.1,0.1c0,0.1-0.1,0.1-0.1,0.1C67.7,26.5,67.6,26.5,67.6,26.4
		z"/>
	<path class="st1" d="M72.5,31.5c0-0.1,0.1-0.1,0.1-0.1s0.1,0.1,0.1,0.1c0,0.1-0.1,0.1-0.1,0.1S72.5,31.6,72.5,31.5z"/>
	<path class="st1" d="M69.8,32.1c0-0.1,0.1-0.1,0.1-0.1c0.1,0,0.1,0.1,0.1,0.1c0,0.1-0.1,0.1-0.1,0.1C69.8,32.2,69.8,32.1,69.8,32.1
		z"/>
	<path class="st1" d="M17.9,10.9c0-0.1,0.1-0.2,0.2-0.2c0.1,0,0.2,0.1,0.2,0.2c0,0.1-0.1,0.2-0.2,0.2C17.9,11,17.9,11,17.9,10.9z"/>
	<path class="st1" d="M14,13.3c0-0.1,0.1-0.2,0.2-0.2c0.1,0,0.2,0.1,0.2,0.2c0,0.1-0.1,0.2-0.2,0.2C14.1,13.5,14,13.4,14,13.3z"/>
	<circle class="st1" cx="17.3" cy="14.9" r="0.2"/>
	<path class="st1" d="M7.6,17.6c0.1-0.1,0.1-0.1,0.2,0c0.1,0.1,0.1,0.1,0,0.2c-0.1,0.1-0.1,0.1-0.2,0C7.5,17.8,7.5,17.7,7.6,17.6z"
		/>
	<path class="st1" d="M9.2,20C9.3,20,9.4,20,9.5,20c0.1,0.1,0.1,0.1,0,0.2c-0.1,0.1-0.1,0.1-0.2,0C9.2,20.2,9.2,20.1,9.2,20z"/>
	<path class="st1" d="M12.6,8.7c0.1-0.1,0.1-0.1,0.2,0c0.1,0.1,0.1,0.1,0,0.2c-0.1,0.1-0.1,0.1-0.2,0C12.6,8.9,12.6,8.8,12.6,8.7z"
		/>
	<path class="st1" d="M10.2,14.4c0.1-0.1,0.1-0.1,0.2,0c0.1,0.1,0.1,0.1,0,0.2c-0.1,0.1-0.1,0.1-0.2,0
		C10.1,14.6,10.1,14.5,10.2,14.4z"/>
	<path class="st1" d="M21.1,19.5c0.1-0.1,0.1-0.1,0.2,0c0.1,0.1,0.1,0.1,0,0.2c-0.1,0.1-0.1,0.1-0.2,0C21.1,19.7,21,19.6,21.1,19.5z
		"/>
	<path class="st1" d="M12,13.5c0,0,0-0.5-0.3-0.7c-0.2-0.2-0.6-0.2-0.6-0.2s0.4,0,0.6-0.2c0.2-0.2,0.3-0.7,0.3-0.7s0,0.5,0.2,0.7
		c0.2,0.2,0.7,0.2,0.7,0.2s-0.5,0-0.7,0.2C12,13,12,13.5,12,13.5z"/>
	<path class="st1" d="M16.3,8.9c0,0,0-0.5-0.3-0.7C15.9,8,15.4,8,15.4,8s0.4,0,0.6-0.2c0.2-0.2,0.3-0.7,0.3-0.7s0,0.5,0.2,0.7
		C16.7,7.9,17.2,8,17.2,8s-0.5,0-0.7,0.2C16.3,8.4,16.3,8.9,16.3,8.9z"/>
	<path class="st1" d="M21.9,62c0.1-0.1,0.2-0.1,0.2,0c0.1,0.1,0.1,0.2,0,0.2c-0.1,0.1-0.2,0.1-0.2,0C21.9,62.1,21.9,62,21.9,62z"/>
	<path class="st1" d="M23.5,66.5c0.1-0.1,0.1-0.1,0.2,0c0.1,0.1,0.1,0.1,0,0.2c-0.1,0.1-0.1,0.1-0.2,0
		C23.4,66.6,23.4,66.5,23.5,66.5z"/>
	<path class="st1" d="M30.4,60.7c0-0.1,0.1-0.2,0.2-0.2c0.1,0,0.2,0.1,0.2,0.2c0,0.1-0.1,0.2-0.2,0.2C30.5,60.9,30.4,60.8,30.4,60.7
		z"/>
	<path class="st1" d="M26.6,63.2c0-0.1,0.1-0.2,0.2-0.2c0.1,0,0.2,0.1,0.2,0.2c0,0.1-0.1,0.2-0.2,0.2C26.6,63.4,26.6,63.3,26.6,63.2
		z"/>
	<circle class="st1" cx="29.9" cy="64.8" r="0.2"/>
	<path class="st1" d="M20.1,67.5c0.1-0.1,0.1-0.1,0.2,0c0.1,0.1,0.1,0.1,0,0.2c-0.1,0.1-0.1,0.1-0.2,0
		C20.1,67.6,20.1,67.5,20.1,67.5z"/>
	<path class="st1" d="M21.8,69.9c0.1-0.1,0.1-0.1,0.2,0c0.1,0.1,0.1,0.1,0,0.2c-0.1,0.1-0.1,0.1-0.2,0C21.7,70.1,21.7,70,21.8,69.9z
		"/>
	<path class="st1" d="M25.2,58.6c0.1-0.1,0.1-0.1,0.2,0c0.1,0.1,0.1,0.1,0,0.2c-0.1,0.1-0.1,0.1-0.2,0
		C25.1,58.7,25.1,58.6,25.2,58.6z"/>
	<path class="st1" d="M22.7,64.3c0.1-0.1,0.1-0.1,0.2,0c0.1,0.1,0.1,0.1,0,0.2c-0.1,0.1-0.1,0.1-0.2,0
		C22.7,64.4,22.7,64.3,22.7,64.3z"/>
	<path class="st1" d="M33.6,69.4c0.1-0.1,0.1-0.1,0.2,0c0.1,0.1,0.1,0.1,0,0.2c-0.1,0.1-0.1,0.1-0.2,0
		C33.6,69.5,33.6,69.4,33.6,69.4z"/>
	<path class="st1" d="M24.6,63.4c0,0,0-0.5-0.3-0.7c-0.2-0.2-0.6-0.2-0.6-0.2s0.4,0,0.6-0.2c0.2-0.2,0.3-0.7,0.3-0.7s0,0.5,0.2,0.7
		c0.2,0.2,0.7,0.2,0.7,0.2s-0.5,0-0.7,0.2C24.6,62.9,24.6,63.4,24.6,63.4z"/>
	<path class="st1" d="M28.8,58.7c0,0,0-0.5-0.3-0.7c-0.2-0.2-0.6-0.2-0.6-0.2s0.4,0,0.6-0.2c0.2-0.2,0.3-0.7,0.3-0.7s0,0.5,0.2,0.7
		c0.2,0.2,0.7,0.2,0.7,0.2s-0.5,0-0.7,0.2C28.9,58.3,28.8,58.7,28.8,58.7z"/>
	<path class="st1" d="M107.9,10c0.1,0,0.2,0,0.2,0.1c0,0.1,0,0.2-0.1,0.2c-0.1,0-0.2,0-0.2-0.1C107.8,10.1,107.9,10,107.9,10z"/>
	<path class="st1" d="M106.2,18.4c0.1,0,0.2,0,0.2,0.1c0,0.1,0,0.2-0.1,0.2c-0.1,0-0.2,0-0.2-0.1C106.1,18.5,106.2,18.4,106.2,18.4z
		"/>
	<path class="st1" d="M117.2,18.4c0.1-0.1,0.2-0.1,0.2,0c0.1,0.1,0.1,0.2,0,0.2c-0.1,0.1-0.2,0.1-0.2,0
		C117.2,18.6,117.1,18.5,117.2,18.4z"/>
	<path class="st1" d="M110.7,17.9c0.1-0.1,0.2-0.1,0.2,0c0.1,0.1,0.1,0.2,0,0.2c-0.1,0.1-0.2,0.1-0.2,0
		C110.7,18.1,110.7,18,110.7,17.9z"/>
	<path class="st1" d="M112.1,21.1c0.1-0.1,0.2-0.1,0.2,0c0.1,0.1,0.1,0.2,0,0.2c-0.1,0.1-0.2,0.1-0.2,0
		C112.1,21.3,112.1,21.2,112.1,21.1z"/>
	<path class="st1" d="M108.5,21.5c0.1-0.1,0.2-0.1,0.2,0c0.1,0.1,0.1,0.2,0,0.2c-0.1,0.1-0.2,0.1-0.2,0
		C108.4,21.7,108.4,21.6,108.5,21.5z"/>
	<path class="st1" d="M103,15c0.1,0,0.2,0,0.2,0.1c0,0.1,0,0.2-0.1,0.2c-0.1,0-0.2,0-0.2-0.1C102.9,15.1,103,15,103,15z"/>
	<path class="st1" d="M102.7,19.9c0.1,0,0.2,0,0.2,0.1c0,0.1,0,0.2-0.1,0.2c-0.1,0-0.2,0-0.2-0.1C102.6,20,102.7,19.9,102.7,19.9z"
		/>
	<path class="st1" d="M112.6,9.5c0.1,0,0.2,0,0.2,0.1c0,0.1,0,0.2-0.1,0.2c-0.1,0-0.2,0-0.2-0.1C112.5,9.6,112.5,9.5,112.6,9.5z"/>
	<path class="st1" d="M107.1,14.2c0.1,0,0.2,0,0.2,0.1c0,0.1,0,0.2-0.1,0.2c-0.1,0-0.2,0-0.2-0.1C107,14.3,107,14.3,107.1,14.2z"/>
	<path class="st1" d="M109.5,14.7c0,0,0.2-0.3,0.2-0.4c0-0.2-0.2-0.4-0.2-0.4s0.2,0.2,0.4,0.2c0.2,0,0.4-0.2,0.4-0.2
		s-0.2,0.2-0.2,0.4c0,0.1,0.2,0.4,0.2,0.4s-0.3-0.2-0.4-0.2C109.7,14.5,109.5,14.7,109.5,14.7z"/>
	<path class="st1" d="M104.7,23.8c0,0,0.2-0.3,0.2-0.4c0-0.2-0.2-0.4-0.2-0.4s0.2,0.2,0.4,0.2c0.2,0,0.4-0.2,0.4-0.2
		s-0.2,0.2-0.2,0.4c0,0.1,0.2,0.4,0.2,0.4s-0.3-0.2-0.4-0.2C104.9,23.6,104.7,23.8,104.7,23.8z"/>
	<path class="st1" d="M102.6,8.5c0,0,0.2-0.3,0.2-0.4c0-0.2-0.2-0.4-0.2-0.4s0.2,0.2,0.4,0.2c0.2,0,0.4-0.2,0.4-0.2
		s-0.2,0.2-0.2,0.4c0,0.1,0.2,0.4,0.2,0.4s-0.3-0.2-0.4-0.2C102.8,8.3,102.6,8.5,102.6,8.5z"/>
	<path class="st1" d="M117.8,30.3c0,0,0.3-0.4,0.3-0.7c0-0.2-0.4-0.6-0.4-0.6s0.3,0.3,0.6,0.3c0.3,0,0.6-0.4,0.6-0.4
		s-0.3,0.4-0.3,0.7c0,0.2,0.4,0.6,0.4,0.6s-0.4-0.3-0.6-0.3C118.1,29.9,117.8,30.3,117.8,30.3z"/>
	<path class="st1" d="M86.9,61.2c0-0.1,0.1-0.1,0.2-0.1c0.1,0,0.1,0.1,0.1,0.2c0,0.1-0.1,0.1-0.2,0.1C86.9,61.4,86.8,61.3,86.9,61.2
		z"/>
	<path class="st1" d="M102,60.8c0-0.1,0.1-0.1,0.2-0.1c0.1,0,0.1,0.1,0.1,0.2c0,0.1-0.1,0.1-0.2,0.1C101.9,60.9,101.9,60.8,102,60.8
		z"/>
	<path class="st1" d="M88.9,65.5c0-0.1,0.1-0.1,0.2,0c0.1,0,0.1,0.1,0,0.2c0,0.1-0.1,0.1-0.2,0C88.8,65.7,88.8,65.6,88.9,65.5z"/>
	<path class="st1" d="M98.4,64.1c0-0.1,0.1-0.1,0.2,0c0.1,0,0.1,0.1,0,0.2c0,0.1-0.1,0.1-0.2,0C98.4,64.3,98.4,64.2,98.4,64.1z"/>
	<path class="st1" d="M99.3,70.6c0-0.1,0.1-0.1,0.2,0c0.1,0,0.1,0.1,0,0.2c0,0.1-0.1,0.1-0.2,0C99.3,70.8,99.3,70.7,99.3,70.6z"/>
	<path class="st1" d="M88.6,70.1c0-0.1,0.1-0.1,0.2,0c0.1,0,0.1,0.1,0,0.2c0,0.1-0.1,0.1-0.2,0C88.6,70.3,88.6,70.2,88.6,70.1z"/>
	<path class="st1" d="M84.7,65.2c0-0.1,0.1-0.1,0.2,0c0.1,0,0.1,0.1,0,0.2c0,0.1-0.1,0.1-0.2,0C84.6,65.4,84.6,65.3,84.7,65.2z"/>
	<path class="st1" d="M91.6,62c0-0.1,0.1-0.2,0.1-0.2c0.1,0,0.2,0.1,0.2,0.1c0,0.1-0.1,0.2-0.1,0.2C91.7,62.1,91.7,62.1,91.6,62z"/>
	<path class="st1" d="M94.9,63.3c0-0.1,0.1-0.2,0.1-0.2c0.1,0,0.2,0.1,0.2,0.1c0,0.1-0.1,0.2-0.1,0.2C95,63.4,94.9,63.3,94.9,63.3z"
		/>
	<path class="st1" d="M92.6,66.1c0-0.1,0.1-0.2,0.1-0.2c0.1,0,0.2,0.1,0.2,0.1c0,0.1-0.1,0.2-0.1,0.2C92.7,66.3,92.6,66.2,92.6,66.1
		z"/>
	<path class="st1" d="M87.9,63.4c0-0.1,0.1-0.1,0.2,0c0.1,0,0.1,0.1,0,0.2s-0.1,0.1-0.2,0C87.9,63.6,87.9,63.5,87.9,63.4z"/>
	<path class="st1" d="M89.9,55.8c0,0-0.1-0.3-0.2-0.4c-0.1-0.1-0.4-0.1-0.4-0.1s0.3,0,0.4-0.2c0.1-0.1,0.1-0.5,0.1-0.5
		s0,0.3,0.2,0.4c0.1,0.1,0.4,0.1,0.4,0.1s-0.3,0.1-0.4,0.2C89.9,55.5,89.9,55.8,89.9,55.8z"/>
	<path class="st1" d="M98.1,61.7c0,0-0.1-0.3-0.2-0.4c-0.1-0.1-0.4-0.1-0.4-0.1s0.3,0,0.4-0.2c0.1-0.1,0.1-0.5,0.1-0.5
		s0,0.3,0.2,0.4c0.1,0.1,0.4,0.1,0.4,0.1s-0.3,0.1-0.4,0.2C98,61.4,98.1,61.7,98.1,61.7z"/>
	<path class="st1" d="M53.6,73.7c0-0.1,0.1-0.1,0.2-0.1c0.1,0,0.1,0.1,0.1,0.2c0,0.1-0.1,0.1-0.2,0.1C53.5,73.9,53.5,73.8,53.6,73.7
		z"/>
	<path class="st1" d="M58.3,74.5c0-0.1,0.1-0.2,0.1-0.2c0.1,0,0.2,0.1,0.2,0.1c0,0.1-0.1,0.2-0.1,0.2C58.4,74.7,58.3,74.6,58.3,74.5
		z"/>
	<path class="st1" d="M61.6,75.8c0-0.1,0.1-0.2,0.1-0.2c0.1,0,0.2,0.1,0.2,0.1c0,0.1-0.1,0.2-0.1,0.2C61.7,75.9,61.6,75.9,61.6,75.8
		z"/>
	<path class="st1" d="M54.6,75.9c0-0.1,0.1-0.1,0.2,0c0.1,0,0.1,0.1,0,0.2c0,0.1-0.1,0.1-0.2,0C54.6,76.1,54.6,76,54.6,75.9z"/>
	<path class="st1" d="M56.6,74.5c0,0-0.1-0.3-0.2-0.4C56.3,74,56,74,56,74s0.3,0,0.4-0.2c0.1-0.1,0.1-0.5,0.1-0.5s0,0.3,0.2,0.4
		c0.1,0.1,0.4,0.1,0.4,0.1s-0.3,0.1-0.4,0.2C56.6,74.2,56.6,74.5,56.6,74.5z"/>
	<path class="st1" d="M61.3,72.5c0,0-0.1-0.3-0.2-0.4C61,72,60.7,72,60.7,72s0.3,0,0.4-0.2c0.1-0.1,0.1-0.5,0.1-0.5s0,0.3,0.2,0.4
		c0.1,0.1,0.4,0.1,0.4,0.1s-0.3,0.1-0.4,0.2C61.3,72.2,61.3,72.5,61.3,72.5z"/>
	<path class="st1" d="M91.6,70.5c0,0-0.1-0.3-0.2-0.4c-0.1-0.1-0.4-0.1-0.4-0.1s0.3,0,0.4-0.2c0.1-0.1,0.1-0.5,0.1-0.5
		s0,0.3,0.2,0.4c0.1,0.1,0.4,0.1,0.4,0.1s-0.3,0.1-0.4,0.2C91.6,70.2,91.6,70.5,91.6,70.5z"/>
	<path class="st1" d="M97.4,68c0,0-0.1-0.5-0.3-0.7c-0.2-0.2-0.7-0.1-0.7-0.1s0.4-0.1,0.6-0.3c0.2-0.2,0.2-0.7,0.2-0.7
		s0.1,0.5,0.3,0.7c0.2,0.1,0.7,0.1,0.7,0.1s-0.5,0.1-0.7,0.3C97.4,67.5,97.4,68,97.4,68z"/>
	<path class="st1" d="M117.3,12c0,0,0.3-0.4,0.3-0.7c0-0.2-0.4-0.6-0.4-0.6s0.3,0.3,0.6,0.3c0.3,0,0.6-0.4,0.6-0.4s-0.3,0.4-0.3,0.7
		c0,0.2,0.4,0.6,0.4,0.6s-0.4-0.3-0.6-0.3C117.6,11.6,117.3,12,117.3,12z"/>
	<path class="st1" d="M107.8,71.9c0,0,0.3-0.4,0.3-0.7c0-0.2-0.4-0.6-0.4-0.6s0.3,0.3,0.6,0.3c0.3,0,0.6-0.4,0.6-0.4
		s-0.3,0.4-0.3,0.7c0,0.2,0.4,0.6,0.4,0.6s-0.4-0.3-0.6-0.3C108.2,71.5,107.8,71.9,107.8,71.9z"/>
	<path class="st1" d="M130.7,53.5c0,0,0.3-0.4,0.3-0.7c0-0.2-0.4-0.6-0.4-0.6s0.3,0.3,0.6,0.3c0.3,0,0.6-0.4,0.6-0.4
		s-0.3,0.4-0.3,0.7c0,0.2,0.4,0.6,0.4,0.6s-0.4-0.3-0.6-0.3C131,53.2,130.7,53.5,130.7,53.5z"/>
	<path class="st1" d="M85.1,68.7c0,0,0.3-0.4,0.3-0.7c0-0.2-0.4-0.6-0.4-0.6s0.3,0.3,0.6,0.3c0.3,0,0.6-0.4,0.6-0.4S86,67.7,86,68
		c0,0.2,0.4,0.6,0.4,0.6s-0.4-0.3-0.6-0.3C85.4,68.4,85.1,68.7,85.1,68.7z"/>
</g>
<path class="st2" d="M0,81.9l0,24.3l141.7,0V61.1c0,0-2.2,0.2-2.7,1.6c-0.3,0.9-0.7,0.9-1.4,0.8c-2.4-0.2-3.8,0.8-4.3,3
	c-0.2,0.9-0.4,1.2-1.5,1.3c-1.1,0.1-1.9,0.1-2.9-0.5c-2-1.1-4.8,0-5.9,2.1c0,0.6-0.1,1.2-0.1,1.8c0,0.7-0.3,0.5-0.6,0.2
	c-0.4-0.3-0.7-0.2-1,0.1c-0.2,0.3-0.4,0.4-0.6,0.2c-2.1-1.2-4.1-1.8-6.4-1.1c0,0,0,0,0,0c-1.2,0.9-2.2,2-1.8,3.7
	c0.1,0.3-0.1,0.4-0.3,0.6c-1.2,0.7-1.4,1.8-1,3.1c0.1,0.4,0.1,0.6-0.3,0.8c-0.9,0.5-1.6,1.5-2.8,0.7c-0.1,0-0.2,0-0.3,0
	c-1.2,0.4-2.3,0.3-2.9-1c-0.1-0.2-0.3-0.2-0.5-0.3c-1.8-0.8-3.5-0.7-5.1,0.2c-0.8,0.4-1,1.6-1.7,1.8c-0.8,0.3-1.8-0.3-2.7,0.1
	c0,0-0.1,0-0.1,0c-0.3,0.2-0.5,0-0.6-0.3c-0.9-1.6-2.4-1.6-3.9-1.5c-1.2,0.1-1.9,0.8-2.1,2c-0.1,0.4-0.2,0.7-0.7,0.7
	c-0.3,0-0.5,0.2-0.7,0.3c-0.6,0.5-2.5,0.4-3-0.2c-1.2-1.2-3.3-1.2-4.2,0c-0.5,0.6-0.8,0.6-1.4,0.4c-2.5-1.1-5.2,0.7-5.7,2.3
	c-0.3,1-0.6,1.9-1.6,2.5c-0.6,0.3-1,0.7-1.7,0.8c-1.7,0.1-3.1,1.3-3.4,3c-0.1,0.6-0.3,0.8-0.9,0.9c-1.5,0.2-2.6,1-3,2.6
	c-0.2,0.6-0.4,0.8-0.9,0.2c-0.2-0.3-0.5-0.3-0.8-0.3c-0.8,0.1-1.7-0.1-2.5,0.2c-0.3,0.1-0.5-0.1-0.6-0.3c-1.1-1.7-2.8-1.5-4-0.7
	c-1,0.6-1.9,0.5-2.7,0.2c-0.5-0.2-1.3-0.5-1.6-1.3c-0.5-1.6-1.2-2.1-2.9-2.1c-1,0-1.9,0.3-2.6,1c-0.3,0.3-0.5,0.5-1,0.3
	c-0.7-0.3-1.4-0.3-2.2-0.1c-0.2,0-0.4,0.2-0.5-0.2c-0.9-2.4-2.8-3-5.1-2.8c-0.9,0.1-1.7,0.4-2.2,1.2c-0.3,0.4-0.6,0.5-1.1,0.3
	c-0.6-0.3-1.3-0.5-2-0.3c-1,0.2-1.4-0.7-2.1-1.1c-0.5-0.3,0.1-0.7,0.2-1.1c0.1-0.6,0.1-1.2-0.2-1.7c0.1-0.2,0.1-0.4,0.1-0.6
	c0.1-1.3-0.9-2.4-2.2-2.4c-0.9,0-1.6,0.4-2,1.1c-0.4-0.5-1-0.8-1.7-0.9c-0.8,0-1.5,0.3-1.9,0.9l0,0c0.1-0.2,0.1-0.4,0.2-0.7
	c0.1-1.3-0.9-2.4-2.2-2.4S15,80.7,14.9,82c0,0.2,0,0.4,0,0.5l-1.3,0c0,0-3.2-1.6-3-0.2c-0.2-4.4-3.4-2.1-3.4-2.1S5.6,82,5.4,83.1
	c0,0,0.6-3.7-2.4-4.3S0,81.9,0,81.9z"/>
<path class="st2" d="M57.6,93.9c0,0-3.2,0.9-2.4,3.1c0,0-5.7,2-2,4.9c0,0-1.8,4.6,3.9,4.4s84.6,0,84.6,0V61.1c0,0-2.2,0.2-2.7,1.6
	c-0.3,0.9-0.7,0.9-1.4,0.8c-2.4-0.2-3.8,0.8-4.3,3c-0.2,0.9-0.4,1.2-1.5,1.3c-1.1,0.1-1.9,0.1-2.9-0.5c-2-1.1-4.8,0-5.9,2.1
	c0,0.6-0.1,1.2-0.1,1.8c0,0.7-0.3,0.5-0.6,0.2c-0.4-0.3-0.7-0.2-1,0.1c-0.2,0.3-0.4,0.4-0.6,0.2c-2.1-1.2-4.1-1.8-6.4-1.1
	c0,0,0,0,0,0c-1.2,0.9-2.2,2-1.8,3.7c0.1,0.3-0.1,0.4-0.3,0.6c-1.2,0.7-1.4,1.8-1,3.1c0.1,0.4,0.1,0.6-0.3,0.8
	c-0.9,0.5-1.6,1.5-2.8,0.7c-0.1,0-0.2,0-0.3,0c-1.2,0.4-2.3,0.3-2.9-1c-0.1-0.2-0.3-0.2-0.5-0.3c-1.8-0.8-3.5-0.7-5.1,0.2
	c-0.8,0.4-1,1.6-1.7,1.8c-0.8,0.3-1.8-0.3-2.7,0.1c0,0-0.1,0-0.1,0c-0.3,0.2-0.5,0-0.6-0.3c-0.9-1.6-2.4-1.6-3.9-1.5
	c-1.2,0.1-1.9,0.8-2.1,2c-0.1,0.4-0.2,0.7-0.7,0.7c-0.3,0-0.5,0.2-0.7,0.3c-0.6,0.5-2.5,0.4-3-0.2c-1.2-1.2-3.3-1.2-4.2,0
	c-0.5,0.6-0.8,0.6-1.4,0.4c-2.5-1.1-5.2,0.7-5.7,2.3c-0.3,1-0.6,1.9-1.6,2.5c-0.6,0.3-1,0.7-1.7,0.8c-1.7,0.1-3.1,1.3-3.4,3
	c-0.1,0.6-0.3,0.8-0.9,0.9c-1.5,0.2-2.6,1-3,2.6c-0.2,0.6-0.4,0.8-0.9,0.2C60.9,93.9,60.1,93,57.6,93.9"/>
<polygon class="st3" points="141.7,67.9 122.5,81.6 116.1,76.1 107.3,83 103,80 83.4,92.6 77.1,88 53.9,106.2 141.7,106.2 "/>
<g>
	<polygon class="st4" points="77.1,88 53.9,106.2 59.9,106.2 	"/>
	<polygon class="st4" points="103,80 83.4,92.6 85.2,93.8 	"/>
	<polygon class="st4" points="141.7,67.9 122.5,81.6 124,82.9 	"/>
	<polygon class="st4" points="116.1,76.1 106.3,82.4 107.8,83.4 	"/>
</g>
<path class="st5" d="M122.1,73"/>
<path class="st6" d="M32.1,101c-0.1,0-0.2,0-0.2,0c0,0,0-0.1,0.1-0.1C32,100.9,32,101,32.1,101z"/>
<path class="st7" d="M56.7,101.9c0.2-0.2-0.1-0.5,0-0.7c0.3-0.1,0.8-0.2,0.9,0.1c0,0.3-0.2,0.6-0.8,0.7
	C56.8,102,56.7,101.9,56.7,101.9z"/>
<polygon class="st8" points="10.8,106.2 4.5,106.2 7.4,102.5 5.6,102.8 8.7,98.9 6.9,99.2 9,95.8 7.1,96.2 10.8,90 14.6,96.2 
	12.6,95.8 14.8,99.2 13,98.9 16,102.8 14.3,102.5 17.2,106.2 "/>
<polygon class="st9" points="31.9,106.2 27.6,106.2 29.6,104.2 28.4,104.4 30.4,102.3 29.2,102.4 30.7,100.6 29.4,100.8 31.9,97.5 
	34.3,100.8 33,100.6 34.5,102.4 33.3,102.3 35.3,104.4 34.1,104.2 36.1,106.2 "/>
<polygon class="st8" points="118.7,94.3 115.2,94.3 116.8,92.5 115.9,92.6 117.5,90.7 116.6,90.8 117.7,89.2 116.7,89.4 118.7,86.3 
	120.8,89.4 119.7,89.2 120.9,90.8 119.9,90.7 121.5,92.6 120.6,92.5 122.2,94.3 "/>
<polygon class="st9" points="114.7,92.9 111.2,92.9 112.8,90.9 111.9,91 113.5,88.8 112.5,89 113.7,87.1 112.6,87.3 114.7,83.9 
	116.7,87.3 115.7,87.1 116.8,89 115.8,88.8 117.5,91 116.6,90.9 118.1,92.9 "/>
<polygon class="st8" points="35.6,106.2 31.4,106.2 33.3,104.2 32.2,104.4 34.2,102.3 33,102.4 34.4,100.6 33.1,100.8 35.6,97.5 
	38.1,100.8 36.8,100.6 38.2,102.4 37,102.3 39.1,104.4 37.9,104.2 39.8,106.2 "/>
<polygon class="st8" points="41.9,106.2 36.8,106.2 39.1,103.3 37.7,103.5 40.2,100.4 38.7,100.6 40.5,97.9 38.9,98.2 41.9,93.3 
	44.9,98.2 43.3,97.9 45,100.6 43.6,100.4 46,103.5 44.6,103.3 47,106.2 "/>
<polygon class="st10" points="80,93.8 65.7,106.2 94.2,106.2 "/>
<polygon class="st4" points="80,93.8 65.7,106.2 71.2,106.2 "/>
<polygon class="st10" points="108,86.2 84.8,106.2 130.9,106.2 "/>
<polygon class="st4" points="108,86.2 84.8,106.2 94.2,106.2 "/>
<path class="st11" d="M0,76.3v30c1.7,0,7.6,0,7.6,0l-4-7.4L6,99.3l-4.1-7.8l2.4,0.6l-2.9-6.7L4,86.1L0,76.3z"/>
<polygon class="st8" points="127.1,104.4 126.1,106.1 133.3,106.1 132.3,104.4 133.6,104.7 131.3,100.8 132.7,101.1 131,97.9 
	132.5,98.2 129.7,92.1 126.8,98.2 128.3,97.9 126.7,101.1 128.1,100.8 125.7,104.7 "/>
<polygon class="st9" points="129.8,103.5 127,106.2 140.4,106.2 137.6,103.5 139.6,103.7 136.2,100.2 138.2,100.5 135.8,97.6 
	138,97.9 133.7,92.4 129.5,97.9 131.7,97.6 129.3,100.5 131.3,100.2 127.9,103.7 "/>
<polygon class="st11" points="113.8,105.8 113.6,106.2 118.6,106.2 118.4,105.8 119.6,106.1 117.6,101.3 118.8,101.6 117.3,97.5 
	118.6,98 117.7,95 118.7,95.1 116.1,90.3 113.6,95.1 114.6,95 113.6,98 114.9,97.5 113.5,101.6 114.7,101.3 112.6,106.1 "/>
<polygon class="st11" points="107.5,104.1 108.8,103.8 107.7,106.2 112.3,106.2 111.2,103.8 112.5,104.1 111.5,101.8 112.5,101.9 
	110,98.2 107.4,101.9 108.4,101.8 "/>
<g>
	<polygon class="st12" points="77.1,88 72.1,91.9 74.6,91.4 75.7,92.3 77.1,91.7 79.9,92.3 80.6,91.3 81.8,91.4 	"/>
	<polygon class="st12" points="80,93.8 84.4,97.7 82.3,97.2 81.3,98.1 80.1,97.5 77.7,98.1 77.1,97.1 76,97.3 	"/>
	<polygon class="st12" points="103,79.9 96.7,84.1 99.4,83.4 100.5,83.9 102.3,83.1 104.3,83.9 105.6,83 107.4,83.1 	"/>
	<polygon class="st12" points="108,86.2 103,90.5 105.5,90.3 106.3,91.5 108.7,90 110,91.1 110.4,90.2 113.1,90.7 	"/>
	<polygon class="st12" points="116.1,76 111.1,79.3 113.6,79 114.8,79.8 116.1,79.1 116.9,79.8 117.6,78.8 120.1,79.5 	"/>
	<polygon class="st12" points="141.7,67.9 138,70.6 140.4,70.1 141,71.9 141.7,71.2 	"/>
</g>
<polygon class="st9" points="62.8,106.2 56.4,106.2 59.3,103.3 57.6,103.5 60.7,100.4 58.8,100.6 61,98 59,98.3 62.8,93.3 
	66.7,98.3 64.7,98 66.9,100.6 65,100.4 68.1,103.5 66.4,103.3 69.3,106.2 "/>
<polygon class="st11" points="55.9,106.2 51.1,106.2 53.3,102.6 52,102.9 54.3,99 52.9,99.3 54.6,96.1 53.1,96.4 55.9,90.3 
	58.8,96.4 57.3,96.1 58.9,99.3 57.6,99 59.9,102.9 58.6,102.6 60.8,106.2 "/>
<polygon class="st11" points="47.6,106.2 41.2,106.2 44.1,102.5 42.4,102.8 45.4,98.9 43.6,99.2 45.8,95.8 43.8,96.2 47.6,90 
	51.3,96.2 49.4,95.8 51.5,99.2 49.7,98.9 52.8,102.8 51,102.5 53.9,106.2 "/>
</svg>
