<?xml version="1.0" encoding="utf-8"?>
<!-- Generator: Adobe Illustrator 22.1.0, SVG Export Plug-In . SVG Version: 6.00 Build 0)  -->
<svg version="1.1" id="Laag_1" xmlns="http://www.w3.org/2000/svg" xmlns:xlink="http://www.w3.org/1999/xlink" x="0px" y="0px"
	 viewBox="0 0 141.7 106.2" style="enable-background:new 0 0 141.7 106.2;" xml:space="preserve">
<style type="text/css">
	.st0{fill:#BFABA6;}
	.st1{fill:#494949;}
	.st2{fill:#EB764D;}
	.st3{fill:#F9C5A9;}
	.st4{fill:#2B2B2B;}
	.st5{fill:#756C6B;}
</style>
<path class="st0" d="M0,78.9l0,27.3l141.7,0V58.1c0,0-2.2,0.2-2.7,1.6c-0.3,0.9-0.7,0.9-1.4,0.8c-2.4-0.2-3.8,0.8-4.3,3
	c-0.2,0.9-0.4,1.2-1.5,1.3c-1.1,0.1-1.9,0.1-2.9-0.5c-2-1.1-4.8,0-5.9,2.1c0,0.6-0.1,1.2-0.1,1.8c0,0.7-0.3,0.5-0.6,0.2
	c-0.4-0.3-0.7-0.2-1,0.1c-0.2,0.3-0.4,0.4-0.6,0.2c-2.1-1.2-4.1-1.8-6.4-1.1c0,0,0,0,0,0c-1.2,0.9-2.2,2-1.8,3.7
	c0.1,0.3-0.1,0.4-0.3,0.6c-1.2,0.7-1.4,1.8-1,3.1c0.1,0.4,0.1,0.6-0.3,0.8c-0.9,0.5-1.6,1.5-2.8,0.7c-0.1,0-0.2,0-0.3,0
	c-1.2,0.4-2.3,0.3-2.9-1c-0.1-0.2-0.3-0.2-0.5-0.3c-1.8-0.8-3.5-0.7-5.1,0.2c-0.8,0.4-1,1.6-1.7,1.8c-0.8,0.3-1.8-0.3-2.7,0.1
	c0,0-0.1,0-0.1,0c-0.3,0.2-0.5,0-0.6-0.3c-0.9-1.6-2.4-1.6-3.9-1.5c-1.2,0.1-1.9,0.8-2.1,2c-0.1,0.4-0.2,0.7-0.7,0.7
	c-0.3,0-0.5,0.2-0.7,0.3c-0.6,0.5-2.5,0.4-3-0.2c-1.2-1.2-3.3-1.2-4.2,0c-0.5,0.6-0.8,0.6-1.4,0.4c-2.5-1.1-5.2,0.7-5.7,2.3
	c-0.3,1-0.6,1.9-1.6,2.5c-0.6,0.3-1,0.7-1.7,0.8c-1.7,0.1-3.1,1.3-3.4,3c-0.1,0.6-0.3,0.8-0.9,0.9c-1.5,0.2-2.6,1-3,2.6
	c-0.2,0.6-0.4,0.8-0.9,0.2c-0.2-0.3-0.5-0.3-0.8-0.3c-0.8,0.1-1.7-0.1-2.5,0.2c-0.3,0.1-0.5-0.1-0.6-0.3c-1.1-1.7-2.8-1.5-4-0.7
	c-1,0.6-1.9,0.5-2.7,0.2c-0.5-0.2-1.3-0.5-1.6-1.3c-0.5-1.6-1.2-2.1-2.9-2.1c-1,0-1.9,0.3-2.6,1c-0.3,0.3-0.5,0.5-1,0.3
	c-0.7-0.3-1.4-0.3-2.2-0.1c-0.2,0-0.4,0.2-0.5-0.2c-0.9-2.4-2.8-3-5.1-2.8c-0.9,0.1-1.7,0.4-2.2,1.2c-0.3,0.4-0.6,0.5-1.1,0.3
	c-0.6-0.3-1.3-0.5-2-0.3c-1,0.2-1.4-0.7-2.1-1.1c-0.5-0.3,0.1-0.7,0.2-1.1c0.1-0.6,0.1-1.2-0.2-1.7c0.1-0.2,0.1-0.4,0.1-0.6
	c0.1-1.3-0.9-2.4-2.2-2.4c-0.9,0-1.6,0.4-2,1.1c-0.4-0.5-1-0.8-1.7-0.9c-0.8,0-1.5,0.3-1.9,0.9l0,0c0.1-0.2,0.1-0.4,0.2-0.7
	c0.1-1.3-0.9-2.4-2.2-2.4c-1.3-0.1-2.4,0.9-2.4,2.2c0,0.2,0,0.4,0,0.5l-1.3,0c0,0-3.2-1.6-3-0.2c-0.2-4.4-3.4-2.1-3.4-2.1
	S5.6,79,5.4,80.1c0,0,0.6-3.7-2.4-4.3S0,78.9,0,78.9z"/>
<polygon points="141.7,67.9 122.5,81.6 116.1,76.1 107.3,83 103,80 83.4,92.6 77.1,88 53.9,106.2 141.7,106.2 "/>
<polygon class="st1" points="77.1,88 53.9,106.2 59.9,106.2 "/>
<polygon class="st1" points="103,80 83.4,92.6 85.2,93.8 "/>
<polygon class="st1" points="141.7,67.9 122.5,81.6 124,82.9 "/>
<polygon class="st1" points="116.1,76.1 106.3,82.4 107.8,83.4 "/>
<path class="st2" d="M122.1,73"/>
<path class="st3" d="M32.1,101c-0.1,0-0.2,0-0.2,0c0,0,0-0.1,0.1-0.1C32,100.9,32,101,32.1,101z"/>
<path class="st4" d="M56.7,101.9c0.2-0.2-0.1-0.5,0-0.7c0.3-0.1,0.8-0.2,0.9,0.1c0,0.3-0.2,0.6-0.8,0.7
	C56.8,102,56.7,101.9,56.7,101.9z"/>
<polygon class="st1" points="10.8,106.2 4.5,106.2 7.4,102.5 5.6,102.8 8.7,98.9 6.9,99.2 9,95.8 7.1,96.2 10.8,90 14.6,96.2 
	12.6,95.8 14.8,99.2 13,98.9 16,102.8 14.3,102.5 17.2,106.2 "/>
<polygon class="st5" points="31.9,106.2 27.6,106.2 29.6,104.2 28.4,104.4 30.4,102.3 29.2,102.4 30.7,100.6 29.4,100.8 31.9,97.5 
	34.3,100.8 33,100.6 34.5,102.4 33.3,102.3 35.3,104.4 34.1,104.2 36.1,106.2 "/>
<polygon class="st5" points="62.8,106.2 56.4,106.2 59.3,103.3 57.6,103.5 60.7,100.4 58.8,100.6 61,98 59,98.3 62.8,93.3 
	66.7,98.3 64.7,98 66.9,100.6 65,100.4 68.1,103.5 66.4,103.3 69.3,106.2 "/>
<polygon class="st4" points="55.9,106.2 51.1,106.2 53.3,102.6 52,102.9 54.3,99 52.9,99.3 54.6,96.1 53.1,96.4 55.9,90.3 
	58.8,96.4 57.3,96.1 58.9,99.3 57.6,99 59.9,102.9 58.6,102.6 60.8,106.2 "/>
<polygon class="st4" points="118.7,94.3 115.2,94.3 116.8,92.5 115.9,92.6 117.5,90.7 116.6,90.8 117.7,89.2 116.7,89.4 118.7,86.3 
	120.8,89.4 119.7,89.2 120.9,90.8 119.9,90.7 121.5,92.6 120.6,92.5 122.2,94.3 "/>
<polygon class="st5" points="114.7,92.9 111.2,92.9 112.8,90.9 111.9,91 113.5,88.8 112.5,89 113.7,87.1 112.6,87.3 114.7,83.9 
	116.7,87.3 115.7,87.1 116.8,89 115.8,88.8 117.5,91 116.6,90.9 118.1,92.9 "/>
<polygon class="st1" points="35.6,106.2 31.4,106.2 33.3,104.2 32.2,104.4 34.2,102.3 33,102.4 34.4,100.6 33.1,100.8 35.6,97.5 
	38.1,100.8 36.8,100.6 38.2,102.4 37,102.3 39.1,104.4 37.9,104.2 39.8,106.2 "/>
<polygon class="st1" points="41.9,106.2 36.8,106.2 39.1,103.3 37.7,103.5 40.2,100.4 38.7,100.6 40.5,97.9 38.9,98.2 41.9,93.3 
	44.9,98.2 43.3,97.9 45,100.6 43.6,100.4 46,103.5 44.6,103.3 47,106.2 "/>
<polygon class="st4" points="47.6,106.2 41.2,106.2 44.1,102.5 42.4,102.8 45.4,98.9 43.6,99.2 45.8,95.8 43.8,96.2 47.6,90 
	51.3,96.2 49.4,95.8 51.5,99.2 49.7,98.9 52.8,102.8 51,102.5 53.9,106.2 "/>
<polygon class="st4" points="80,93.8 65.7,106.2 94.2,106.2 "/>
<polygon class="st1" points="80,93.8 65.7,106.2 71.2,106.2 "/>
<g>
	<polygon class="st4" points="108,86.2 84.8,106.2 130.9,106.2 	"/>
	<polygon class="st1" points="108,86.2 84.8,106.2 94.2,106.2 	"/>
</g>
<path d="M0,76.3v30c1.7,0,7.6,0,7.6,0l-4-7.4L6,99.3l-4.1-7.8l2.4,0.6l-2.9-6.7L4,86.1L0,76.3z"/>
<polygon class="st4" points="127.1,104.4 126.1,106.1 133.3,106.1 132.3,104.4 133.6,104.7 131.3,100.8 132.7,101.1 131,97.9 
	132.5,98.2 129.7,92.1 126.8,98.2 128.3,97.9 126.7,101.1 128.1,100.8 125.7,104.7 "/>
<polygon class="st5" points="129.8,103.5 127,106.2 140.4,106.2 137.6,103.5 139.6,103.7 136.2,100.2 138.2,100.5 135.8,97.6 
	138,97.9 133.7,92.4 129.5,97.9 131.7,97.6 129.3,100.5 131.3,100.2 127.9,103.7 "/>
<polygon points="113.8,105.8 113.6,106.2 118.6,106.2 118.4,105.8 119.6,106.1 117.6,101.3 118.8,101.6 117.3,97.5 118.6,98 
	117.7,95 118.7,95.1 116.1,90.3 113.6,95.1 114.6,95 113.6,98 114.9,97.5 113.5,101.6 114.7,101.3 112.6,106.1 "/>
<polygon points="107.5,104.1 108.8,103.8 107.7,106.2 112.3,106.2 111.2,103.8 112.5,104.1 111.5,101.8 112.5,101.9 110,98.2 
	107.4,101.9 108.4,101.8 "/>
</svg>
