<svg id="Laag_1" data-name="Laag 1" xmlns="http://www.w3.org/2000/svg" viewBox="0 0 141.73 61.76"><defs><style>.cls-1{fill:#f7dacd;}.cls-2{fill:#494949;}.cls-3{fill:#eb764d;}.cls-4{fill:#f9c5a9;}.cls-5{fill:#2b2b2b;}.cls-6{fill:#756c6b;}</style></defs><title>achtergrond</title><path class="cls-1" d="M.78,107.91,0,141.73l141.73,0V80c-1.34,0-2.69.3-3.12,1.71-.27.9-.67.93-1.39.91-2.37-.07-3.77,1-4.11,3.22-.15,1-.38,1.23-1.42,1.37a4.42,4.42,0,0,1-2.93-.39c-2.07-1-4.81.27-5.81,2.41A14.93,14.93,0,0,0,123,91c.06.68-.26.54-.59.19a.69.69,0,0,0-1,.17c-.18.3-.33.37-.57.25-2.12-1.1-4.18-1.63-6.48-.82l0,0c-1.16,1-2.12,2.1-1.59,3.81a.45.45,0,0,1-.24.58,2.34,2.34,0,0,0-.86,3.1.6.6,0,0,1-.24.84c-.85.59-1.54,1.59-2.79.87a.39.39,0,0,0-.3,0c-1.21.48-2.25.43-2.92-.89-.08-.15-.34-.22-.52-.3a5.33,5.33,0,0,0-5.11.51c-.78.48-.94,1.65-1.65,1.92s-1.78-.18-2.66.2l-.1,0c-.3.18-.48,0-.65-.23-.95-1.52-2.46-1.51-4-1.34a2.17,2.17,0,0,0-2,2.08c-.06.44-.22.68-.64.77a1.6,1.6,0,0,0-.71.36,3,3,0,0,1-3-.08,2.93,2.93,0,0,0-4.23.25,1,1,0,0,1-1.38.42,4.4,4.4,0,0,0-5.54,2.6,3.65,3.65,0,0,1-1.47,2.6,3.55,3.55,0,0,1-1.67.85,3.55,3.55,0,0,0-3.2,3.14.87.87,0,0,1-.83.91,3.4,3.4,0,0,0-2.9,2.72c-.14.58-.39.78-.86.26a.84.84,0,0,0-.83-.22,7.74,7.74,0,0,0-2.48.34c-.31.16-.47-.06-.64-.3a2.66,2.66,0,0,0-4-.53,3,3,0,0,1-2.65.37,2.19,2.19,0,0,1-1.66-1.26c-.56-1.6-1.3-2-3-2a3.23,3.23,0,0,0-2.5,1.11c-.27.31-.51.52-1,.35a3.32,3.32,0,0,0-2.18,0c-.19.06-.38.2-.54-.18-1-2.34-3-2.84-5.2-2.53a2.68,2.68,0,0,0-2.15,1.34c-.24.46-.53.55-1.06.31a2.94,2.94,0,0,0-2.07-.24c-1,.27-1.43-.62-2.1-1s.08-.7.1-1.07a2.81,2.81,0,0,0-.32-1.72,2.3,2.3,0,0,0-4.2-1.8,2.29,2.29,0,0,0-3.59.17h0a2.28,2.28,0,0,0,.12-.7,2.31,2.31,0,0,0-4.62,0,2.51,2.51,0,0,0,.07.55l-1.35,0s-3.3-1.39-3,0c-.38-4.35-3.53-2-3.53-2a9.53,9.53,0,0,0-1.61,3s.46-3.75-2.6-4.2S.78,107.91.78,107.91Z" transform="translate(0 -80.01)"/><polygon points="141.73 2.99 122.49 24 116.15 15.58 107.34 26.19 102.97 21.5 83.41 40.83 77.14 33.84 53.94 61.73 141.73 61.76 141.73 2.99"/><polygon class="cls-2" points="77.14 33.84 53.94 61.73 59.9 61.73 77.14 33.84"/><polygon class="cls-2" points="103.03 21.31 83.41 40.83 85.25 42.73 103.03 21.31"/><polygon class="cls-2" points="141.73 2.99 122.49 24 123.99 25.96 141.73 2.99"/><polygon class="cls-2" points="116.03 15.46 106.34 25.19 107.83 26.7 116.03 15.46"/><path class="cls-3" d="M122.15,90.74" transform="translate(0 -80.01)"/><path class="cls-4" d="M38.45,132.33c-.35.21-.5.91-1.05.43-.16-.15-.44-.42-.3-.58C37.55,131.65,38,132.28,38.45,132.33Z" transform="translate(0 -80.01)"/><path class="cls-4" d="M32.08,133.71l-.23.06.07-.22Z" transform="translate(0 -80.01)"/><path class="cls-5" d="M56.73,135.12c.21-.37-.12-.73,0-1.11.34-.1.83-.33.85.22a1,1,0,0,1-.8,1.09Z" transform="translate(0 -80.01)"/><polygon class="cls-2" points="10.83 61.73 4.46 61.73 7.37 56.09 5.64 56.45 8.68 50.47 6.88 50.92 9.04 45.8 7.08 46.37 10.83 36.79 14.58 46.37 12.61 45.8 14.77 50.92 12.97 50.47 16.02 56.45 14.28 56.09 17.19 61.73 10.83 61.73"/><polygon class="cls-6" points="31.85 61.73 27.63 61.73 29.56 58.69 28.41 58.89 30.43 55.67 29.24 55.92 30.67 53.16 29.37 53.47 31.85 48.32 34.34 53.47 33.04 53.16 34.47 55.92 33.27 55.67 35.29 58.89 34.14 58.69 36.07 61.73 31.85 61.73"/><polygon class="cls-6" points="63.85 61.73 57.38 61.73 60.33 57.25 58.57 57.53 61.66 52.79 59.83 53.15 62.03 49.08 60.03 49.53 63.85 41.93 67.66 49.53 65.66 49.08 67.86 53.15 66.03 52.79 69.12 57.53 67.36 57.25 70.32 61.73 63.85 61.73"/><polygon class="cls-5" points="55.94 61.73 51.12 61.73 53.32 56.21 52.01 56.57 54.31 50.72 52.95 51.17 54.58 46.16 53.09 46.72 55.94 37.35 58.77 46.72 57.29 46.16 58.92 51.17 57.56 50.72 59.86 56.57 58.55 56.21 60.75 61.73 55.94 61.73"/><polygon class="cls-5" points="118.71 43.43 115.25 43.43 116.83 40.68 115.89 40.85 117.55 37.93 116.56 38.15 117.74 35.65 116.67 35.93 118.71 31.25 120.76 35.93 119.69 35.65 120.86 38.15 119.88 37.93 121.54 40.85 120.6 40.68 122.18 43.43 118.71 43.43"/><polygon class="cls-6" points="114.68 41.29 111.21 41.29 112.8 38.16 111.85 38.36 113.51 35.05 112.53 35.3 113.71 32.46 112.64 32.77 114.68 27.46 116.72 32.77 115.65 32.46 116.83 35.3 115.85 35.05 117.51 38.36 116.56 38.16 118.15 41.29 114.68 41.29"/><polygon class="cls-2" points="35.61 61.73 31.39 61.73 33.32 58.69 32.17 58.89 34.19 55.67 33 55.92 34.43 53.16 33.13 53.47 35.61 48.32 38.1 53.47 36.8 53.16 38.23 55.92 37.03 55.67 39.05 58.89 37.9 58.69 39.83 61.73 35.61 61.73"/><polygon class="cls-2" points="41.88 61.73 36.81 61.73 39.13 57.23 37.75 57.52 40.18 52.75 38.74 53.12 40.46 49.03 38.89 49.48 41.88 41.85 44.88 49.48 43.31 49.03 45.03 53.12 43.59 52.75 46.02 57.52 44.64 57.23 46.96 61.73 41.88 61.73"/><polygon class="cls-5" points="47.57 61.73 41.21 61.73 44.12 56.09 42.38 56.45 45.43 50.47 43.63 50.92 45.78 45.8 43.82 46.37 47.57 36.79 51.32 46.37 49.36 45.8 51.52 50.92 49.72 50.47 52.76 56.45 51.02 56.09 53.94 61.73 47.57 61.73"/><polygon class="cls-5" points="80.01 42.73 65.72 61.76 94.17 61.76 80.01 42.73"/><polygon class="cls-2" points="80.01 42.73 65.72 61.73 71.17 61.73 80.01 42.73"/><polygon class="cls-5" points="107.97 30.99 84.85 61.76 130.86 61.76 107.97 30.99"/><polygon class="cls-2" points="107.97 30.99 84.85 61.76 94.17 61.76 107.97 30.99"/><path d="M0,95.79v45.94H7.57L3.62,130.42l2.36.72-4.15-12,2.45.92L1.35,109.79,4,110.92Z" transform="translate(0 -80.01)"/><polygon class="cls-5" points="127.06 58.98 126.06 61.48 133.29 61.48 132.29 58.98 133.61 59.33 131.3 53.49 132.66 53.94 131.03 48.93 132.52 49.48 129.68 40.12 126.84 49.48 128.33 48.93 126.69 53.94 128.06 53.49 125.75 59.33 127.06 58.98"/><polygon class="cls-6" points="129.83 57.51 127.03 61.76 140.45 61.76 137.64 57.51 139.6 57.83 136.16 52.55 138.19 52.96 135.75 48.44 137.98 48.93 133.74 40.48 129.5 48.93 131.72 48.44 129.28 52.96 131.31 52.55 127.87 57.83 129.83 57.51"/><polygon points="113.81 61.07 113.63 61.73 118.63 61.73 118.44 61.07 119.61 61.52 117.56 54.15 118.77 54.72 117.32 48.41 118.64 49.1 117.67 44.57 118.65 44.7 116.13 37.31 113.6 44.7 114.58 44.57 113.61 49.1 114.93 48.41 113.48 54.72 114.69 54.15 112.65 61.52 113.81 61.07"/><polygon points="107.45 58.51 108.77 57.97 107.66 61.73 112.28 61.73 111.17 57.97 112.48 58.51 111.52 55.01 112.49 55.1 109.97 49.38 107.44 55.1 108.42 55.01 107.45 58.51"/></svg>